<?xml version="1.0" standalone="no"?>
<!DOCTYPE svg PUBLIC "-//W3C//DTD SVG 20010904//EN"
 "http://www.w3.org/TR/2001/REC-SVG-20010904/DTD/svg10.dtd">
<svg version="1.0" xmlns="http://www.w3.org/2000/svg"
 width="1280.000000pt" height="1081.000000pt" viewBox="0 0 1280.000000 1081.000000"
 preserveAspectRatio="xMidYMid meet">

<g transform="translate(0.000000,1081.000000) scale(0.100000,-0.100000)"
fill="#000000" stroke="none">
<path d="M1065 10800 c-402 -5 -442 -7 -466 -23 -72 -49 -67 -185 8 -234 23
-16 62 -19 293 -24 251 -5 270 -7 350 -33 231 -73 364 -186 512 -436 47 -80
120 -208 163 -285 43 -77 106 -189 140 -250 94 -167 253 -450 302 -540 25 -44
48 -84 52 -88 4 -4 38 10 76 32 91 53 163 70 218 50 22 -8 50 -27 61 -42 43
-58 15 -200 -76 -381 l-40 -80 26 -50 c14 -28 38 -73 54 -101 16 -27 42 -75
59 -105 17 -30 50 -89 73 -130 24 -41 53 -93 65 -115 12 -22 44 -78 70 -125
27 -47 62 -110 78 -140 16 -30 36 -62 44 -71 7 -9 31 -52 53 -95 22 -43 50
-97 63 -119 13 -22 50 -87 82 -145 33 -58 69 -121 80 -141 11 -19 44 -80 74
-135 29 -54 64 -115 76 -134 20 -32 111 -194 243 -435 30 -55 65 -116 77 -135
12 -19 59 -102 105 -185 45 -82 113 -204 150 -270 290 -515 326 -580 375 -670
21 -38 50 -90 65 -115 15 -25 45 -76 66 -115 21 -38 45 -82 54 -97 8 -14 32
-57 52 -95 21 -37 48 -86 61 -108 13 -22 37 -65 54 -95 31 -57 105 -188 140
-250 11 -19 53 -93 93 -165 40 -71 102 -182 138 -245 35 -63 106 -189 157
-280 183 -328 238 -425 245 -435 4 -5 25 -44 48 -85 42 -79 73 -135 192 -345
84 -149 221 -394 322 -575 39 -69 81 -139 94 -157 43 -57 139 -68 196 -24 25
20 48 67 158 316 34 77 79 178 100 225 21 47 66 148 100 225 34 77 76 174 95
215 18 41 61 138 95 215 35 77 83 185 108 240 25 55 60 134 77 175 18 41 63
143 100 225 37 83 82 184 100 225 39 91 175 396 255 575 116 258 165 368 225
505 20 47 65 148 100 225 35 77 80 178 100 225 20 47 45 103 55 125 10 22 36
81 58 130 22 50 70 158 107 240 119 268 133 299 155 350 12 28 42 95 67 150
24 55 60 136 79 180 20 44 44 98 54 120 21 45 80 178 263 590 21 50 49 113 62
140 12 28 38 86 57 130 20 44 63 141 96 215 33 74 81 182 107 238 25 57 51
116 56 130 6 15 30 70 54 122 23 52 70 156 103 230 33 74 79 178 102 230 23
52 52 118 65 145 12 28 36 82 53 120 17 39 52 117 77 175 58 130 88 196 125
280 16 36 59 133 96 215 36 83 84 191 106 240 22 50 48 108 58 130 10 22 37
83 60 135 23 52 51 116 62 142 l21 48 1037 2 c979 3 1037 4 1063 21 96 63 86
202 -18 248 -42 19 -72 19 -1127 17 l-1084 -3 -40 -27 c-30 -20 -46 -44 -71
-100 -87 -198 -168 -381 -203 -458 -21 -47 -46 -102 -54 -123 -8 -21 -35 -81
-60 -135 -51 -112 -146 -325 -205 -462 -23 -52 -50 -113 -60 -135 -11 -22 -35
-76 -54 -120 -70 -158 -129 -291 -147 -330 -10 -22 -37 -83 -60 -135 -23 -52
-50 -113 -60 -135 -21 -46 -86 -194 -137 -310 -19 -44 -45 -102 -58 -130 -13
-27 -39 -86 -58 -130 -19 -44 -67 -152 -107 -240 -64 -143 -106 -236 -160
-360 -10 -22 -38 -85 -62 -140 -25 -55 -60 -134 -78 -175 -18 -41 -43 -97 -56
-125 -12 -27 -58 -131 -102 -230 -44 -99 -89 -200 -100 -225 -11 -25 -47 -106
-80 -180 -33 -74 -78 -175 -100 -225 -22 -49 -68 -153 -102 -230 -81 -184
-174 -392 -215 -485 -19 -41 -61 -138 -95 -215 -96 -216 -140 -315 -165 -370
-12 -27 -38 -86 -58 -130 -20 -44 -56 -125 -80 -180 -25 -55 -56 -127 -70
-160 -14 -33 -43 -98 -65 -144 l-39 -84 -37 64 c-21 35 -42 73 -49 84 -6 11
-27 49 -48 85 -35 63 -209 374 -255 455 -12 22 -40 72 -61 110 -22 39 -84 149
-138 245 -54 96 -128 227 -163 290 -72 127 -211 376 -322 575 -40 72 -76 135
-80 140 -4 6 -25 44 -48 85 -22 41 -58 107 -79 145 -22 39 -72 126 -110 195
-72 129 -83 149 -161 285 -25 44 -55 98 -67 120 -12 22 -55 99 -95 170 -40 72
-83 148 -95 170 -12 22 -52 92 -87 155 -67 118 -193 343 -233 415 -12 22 -51
92 -87 155 -35 63 -109 194 -163 290 -54 96 -116 207 -138 245 -21 39 -49 88
-61 110 -38 67 -181 323 -259 460 -22 39 -50 88 -62 110 -111 200 -176 316
-195 350 -58 100 -109 191 -178 315 -16 30 -48 87 -69 125 -42 74 -221 392
-259 460 -64 115 -102 182 -115 203 l-14 23 -965 -3 c-531 -2 -1163 -5 -1405
-8z"/>
<path d="M11397 8433 l-97 -216 -3 -3491 c-2 -2840 0 -3503 11 -3554 21 -99
67 -250 101 -329 100 -231 287 -457 493 -596 20 -13 34 -27 31 -31 -9 -9
-2263 -7 -2263 2 0 4 30 29 66 56 269 199 451 473 538 811 l31 120 2 2395 c1
1777 -1 2389 -9 2370 -25 -54 -101 -229 -129 -295 -17 -38 -39 -90 -50 -115
-19 -44 -19 -91 -23 -2170 -2 -1483 -6 -2145 -14 -2192 -6 -37 -25 -109 -43
-160 -62 -180 -143 -318 -265 -447 -207 -220 -472 -346 -792 -375 -117 -10
-125 -13 -148 -39 -33 -39 -39 -69 -19 -110 34 -72 -129 -67 1985 -67 1757 0
1905 1 1937 17 67 31 79 115 25 165 -24 23 -39 26 -127 32 -227 15 -494 111
-653 235 -72 56 -220 209 -258 266 -129 192 -196 375 -209 565 -2 41 -7 1715
-10 3719 -3 2005 -7 3646 -8 3647 -1 1 -46 -95 -100 -213z"/>
<path d="M2110 6655 c0 -449 3 -554 14 -570 7 -11 23 -49 36 -85 35 -102 64
-151 119 -205 l51 -49 0 457 c0 432 -1 460 -19 500 -11 23 -30 67 -41 97 -12
30 -40 100 -62 155 -22 55 -45 118 -53 140 -46 137 -44 151 -45 -440z"/>
<path d="M3314 5976 c-32 -14 -53 -36 -35 -36 5 0 9 -9 8 -21 -1 -17 -3 -18
-12 -6 -9 12 -12 12 -23 0 -7 -7 -18 -10 -24 -7 -7 4 -8 2 -4 -5 4 -6 1 -14
-7 -17 -19 -7 -9 -54 12 -55 10 0 11 -2 3 -6 -6 -2 -10 -10 -6 -16 3 -7 0 -5
-8 4 -12 14 -61 22 -52 8 2 -4 -3 -12 -11 -19 -10 -8 -11 -18 -5 -36 7 -18 6
-24 -4 -24 -7 0 -23 -8 -35 -19 -19 -16 -19 -19 -5 -25 12 -5 14 -9 5 -20 -6
-7 -8 -16 -5 -19 4 -3 -4 -9 -17 -12 -25 -7 -68 -55 -49 -55 6 0 8 -5 5 -10
-4 -6 -10 -8 -15 -5 -5 3 -7 -4 -5 -15 2 -12 -1 -20 -10 -20 -8 0 -17 -4 -20
-10 -4 -6 1 -7 10 -3 15 5 15 3 4 -15 -10 -16 -16 -18 -22 -9 -5 7 -5 2 -1
-13 6 -23 6 -24 -12 -10 -18 14 -18 14 -5 -2 7 -10 11 -19 7 -19 -3 -1 -10 -2
-15 -3 -22 -3 -32 -23 -17 -35 10 -8 16 -9 21 -1 3 5 17 10 30 10 23 0 40 23
36 50 -2 8 0 12 5 8 4 -4 15 2 25 14 20 23 24 32 10 24 -5 -3 -11 1 -15 9 -4
10 1 14 16 12 13 -1 22 4 23 16 2 9 0 17 -4 17 -4 0 -16 7 -27 16 -10 8 -13
13 -7 9 7 -3 22 -1 33 5 12 6 20 7 20 1 0 -5 -8 -12 -17 -14 -15 -4 -15 -5 -2
-6 9 0 24 8 34 19 10 11 15 20 11 20 -4 0 7 25 24 55 17 30 28 55 24 55 -3 0
4 9 17 20 13 10 20 19 15 20 -6 0 -2 6 8 13 12 9 20 29 22 55 4 51 13 70 25
51 4 -8 3 -20 -4 -28 -10 -12 -9 -14 6 -8 10 4 21 7 23 7 2 0 4 5 4 11 0 14
26 40 34 32 3 -3 8 2 12 11 3 9 13 16 21 16 9 0 11 -5 7 -12 -21 -33 -4 -73
19 -48 9 10 9 11 0 6 -9 -5 -11 -2 -7 8 4 10 1 16 -7 16 -7 0 -10 3 -6 6 3 4
17 -3 31 -14 14 -10 22 -22 19 -26 -3 -3 -1 -6 5 -6 7 0 12 5 12 10 0 6 7 10
17 10 13 0 13 -3 -4 -18 -17 -14 -18 -19 -7 -30 9 -8 12 -28 9 -60 -3 -36 -2
-40 4 -17 l8 30 5 -30 c5 -30 5 -30 7 5 1 27 4 31 11 20 9 -13 10 -13 11 0 6
47 5 69 -2 65 -4 -3 -5 -14 -2 -25 3 -11 2 -20 -2 -20 -13 0 -45 42 -39 51 10
16 23 9 18 -8 -5 -14 -4 -15 4 -4 8 11 9 39 2 49 -2 1 -3 8 -4 15 0 6 -7 13
-13 13 -26 3 -28 4 -14 13 11 7 9 12 -10 22 -13 7 -28 14 -34 15 -5 1 -19 5
-30 9 -16 6 -17 5 -5 -4 12 -9 11 -11 -8 -11 -13 0 -20 4 -17 10 8 12 7 12
-31 -4z m79 -18 c-2 -5 -13 -8 -23 -8 -10 0 -24 -8 -30 -17 -11 -17 -11 -17
-6 0 3 11 2 15 -4 12 -6 -3 -10 0 -10 7 0 10 -3 9 -10 -2 -5 -8 -12 -11 -17
-7 -4 5 -1 12 6 16 16 10 101 9 94 -1z m36 -29 c-9 -18 -7 -19 18 -15 26 5 27
4 9 -9 -18 -13 -22 -13 -43 7 -21 20 -22 24 -9 34 9 6 12 15 8 20 -4 4 1 2 10
-5 14 -10 15 -17 7 -32z m-114 -8 c-3 -6 -11 -11 -17 -11 -6 0 -6 6 2 15 14
17 26 13 15 -4z m-78 -61 c1 -11 -2 -20 -8 -20 -5 0 -9 9 -9 20 0 11 4 20 8
20 4 0 8 -9 9 -20z m-31 -73 c1 -10 -6 -22 -16 -27 -25 -13 -40 -12 -17 1 18
11 14 29 -6 29 -7 0 -6 -4 3 -10 9 -6 10 -10 3 -10 -20 0 -24 18 -6 29 23 13
36 9 39 -12z m-36 -67 c-7 -13 -16 -17 -28 -13 -14 6 -15 4 -5 -8 8 -10 9 -19
1 -29 -8 -12 -9 -12 -4 3 3 11 0 20 -9 23 -12 5 -12 8 1 22 13 13 17 13 25 1
7 -11 9 -11 9 4 0 9 5 17 10 17 7 0 7 -6 0 -20z m-49 -77 c-11 -5 -11 -7 0
-15 11 -7 10 -8 -4 -4 -10 3 -27 1 -38 -4 -10 -6 -19 -8 -19 -6 0 7 53 35 65
35 6 0 4 -3 -4 -6z m-40 -80 c13 -15 12 -15 -8 -4 -15 7 -23 8 -23 1 0 -5 -5
-10 -11 -10 -8 0 -8 5 1 15 16 19 24 19 41 -2z m-36 -40 c-1 -10 -8 -17 -15
-15 -7 1 -10 -8 -8 -25 2 -18 -2 -27 -10 -25 -6 1 -12 -2 -12 -8 0 -5 -8 -10
-17 -10 -15 0 -14 3 3 23 11 12 26 34 34 50 15 30 30 36 25 10z"/>
<path d="M3411 5941 c-8 -5 -9 -11 -3 -15 5 -3 12 1 16 9 6 17 6 18 -13 6z"/>
<path d="M3352 5847 c0 -12 -3 -34 -6 -50 -2 -15 0 -25 4 -22 5 3 6 13 3 22
-5 12 -3 14 7 8 9 -6 11 -4 6 4 -5 7 0 22 10 34 11 12 15 19 10 15 -5 -4 -14
-4 -21 2 -8 6 -11 2 -13 -13z"/>
<path d="M2109 3568 c0 -1261 -2 -2309 -4 -2328 -9 -69 -17 -107 -47 -200
-147 -461 -558 -781 -1050 -819 -62 -5 -121 -12 -130 -16 -10 -4 -27 -22 -39
-41 -38 -62 -5 -132 72 -154 37 -11 2547 -14 2611 -4 20 4 50 19 67 35 42 38
43 95 3 140 -27 30 -31 31 -145 39 -432 30 -802 274 -997 660 -38 75 -95 255
-110 344 -6 39 -10 837 -10 2224 l0 2162 -52 77 c-53 77 -141 173 -158 173 -6
0 -10 -848 -11 -2292z m262 -2968 c68 -99 226 -260 317 -324 35 -25 67 -47 70
-50 3 -3 -239 -6 -538 -6 l-543 0 58 41 c188 132 391 376 469 562 l16 39 46
-89 c26 -48 73 -126 105 -173z"/>
<path d="M3187 5853 c-4 -3 -7 -11 -7 -17 0 -6 5 -5 12 2 6 6 9 14 7 17 -3 3
-9 2 -12 -2z"/>
<path d="M3487 5747 c-4 -15 -12 -25 -17 -22 -6 3 -10 -1 -10 -9 0 -8 4 -17 9
-21 6 -3 9 -24 9 -46 0 -26 -3 -36 -9 -28 -12 19 -19 7 -23 -37 -2 -24 2 -45
11 -56 10 -11 11 -18 4 -23 -6 -3 -11 -1 -11 5 0 6 -5 8 -11 4 -8 -4 -7 -9 2
-15 11 -7 9 -12 -8 -24 -24 -17 -30 -35 -12 -35 5 0 7 5 3 11 -4 8 0 8 15 0
23 -13 29 -23 8 -15 -8 3 -25 -5 -38 -16 -13 -12 -18 -19 -11 -15 6 3 12 1 12
-4 0 -6 -4 -11 -9 -11 -5 0 -16 -13 -24 -29 -12 -25 -12 -29 2 -40 14 -11 14
-11 -2 -7 -20 6 -37 -26 -42 -82 -3 -30 -27 -61 -48 -62 -4 0 1 -10 12 -22 17
-17 23 -19 36 -8 8 7 12 16 9 21 -3 5 1 9 8 9 10 0 10 2 -1 9 -15 10 -7 31 12
31 7 0 6 -4 -3 -10 -9 -6 -10 -10 -3 -10 15 0 25 15 16 24 -11 10 -12 36 -2
36 5 0 9 -4 9 -10 0 -5 5 -10 11 -10 5 0 7 5 4 10 -4 6 -2 17 5 24 12 15 4 66
-11 66 -5 0 -9 5 -9 11 0 6 9 8 20 4 14 -4 20 -2 20 8 0 8 7 17 15 21 17 6 20
36 4 36 -6 0 -8 -7 -5 -17 4 -10 4 -14 0 -10 -4 4 -16 0 -26 -10 -26 -24 -22
-8 7 23 14 15 31 24 39 21 11 -4 13 0 10 19 -3 16 -1 23 6 19 5 -3 10 -1 10 4
0 6 -4 11 -10 11 -15 0 -12 17 7 36 18 17 25 54 11 54 -16 0 -8 20 10 21 10 0
12 3 5 6 -7 2 -13 9 -13 14 0 6 5 7 12 3 6 -4 9 -3 6 2 -3 5 -2 35 1 66 4 31
4 55 0 52 -4 -2 -9 8 -11 23 l-3 28 -8 -28z m10 -89 c-2 -13 -4 -5 -4 17 -1
22 1 32 4 23 2 -10 2 -28 0 -40z m-17 -126 c0 -15 -2 -15 -10 -2 -13 20 -13
33 0 25 6 -3 10 -14 10 -23z m-80 -242 c0 -5 -4 -10 -10 -10 -5 0 -10 5 -10
10 0 6 5 10 10 10 6 0 10 -4 10 -10z m-17 -27 c-7 -2 -19 -2 -25 0 -7 3 -2 5
12 5 14 0 19 -2 13 -5z m-28 -23 c3 -5 1 -10 -4 -10 -6 0 -11 5 -11 10 0 6 2
10 4 10 3 0 8 -4 11 -10z"/>
<path d="M3331 5753 c1 -5 0 -10 -1 -13 -6 -15 -6 -50 0 -43 13 14 21 63 10
63 -5 0 -9 -3 -9 -7z"/>
<path d="M3456 5675 c-3 -9 -6 -22 -5 -28 0 -7 5 -1 10 12 5 13 8 26 5 28 -2
2 -6 -3 -10 -12z"/>
<path d="M3310 5665 c-7 -9 -8 -15 -2 -15 5 0 12 7 16 15 3 8 4 15 2 15 -2 0
-9 -7 -16 -15z"/>
<path d="M3300 5629 c0 -5 5 -7 10 -4 6 3 10 8 10 11 0 2 -4 4 -10 4 -5 0 -10
-5 -10 -11z"/>
<path d="M3290 5595 c-7 -9 -8 -15 -2 -15 5 0 12 7 16 15 3 8 4 15 2 15 -2 0
-9 -7 -16 -15z"/>
<path d="M3286 5557 c3 -10 9 -15 12 -12 3 3 0 11 -7 18 -10 9 -11 8 -5 -6z"/>
<path d="M3265 5490 c-3 -5 -1 -10 4 -10 6 0 11 5 11 10 0 6 -2 10 -4 10 -3 0
-8 -4 -11 -10z"/>
<path d="M3243 5445 c0 -7 6 -11 14 -8 7 3 13 6 13 8 0 2 -6 5 -13 8 -8 3 -14
-1 -14 -8z"/>
<path d="M3246 5421 c-14 -5 -16 -10 -8 -15 17 -10 15 -26 -4 -26 -10 0 -14
-6 -11 -14 3 -8 1 -16 -5 -18 -6 -2 -12 -18 -13 -35 -1 -17 -7 -38 -14 -47 -7
-8 -14 -22 -15 -31 -1 -9 -7 -20 -12 -23 -13 -10 -16 -32 -5 -32 13 0 25 20
27 43 1 9 2 22 3 28 0 6 7 9 15 6 9 -4 12 2 10 19 -1 13 2 27 8 30 6 4 5 10
-3 15 -11 7 -10 9 3 9 11 0 16 6 13 19 -2 11 3 22 12 25 8 4 13 12 10 20 -3 7
0 19 6 25 12 12 10 13 -17 2z"/>
<path d="M2956 5403 c-10 -10 -16 -12 -12 -5 4 6 2 12 -3 12 -6 0 -11 -4 -11
-10 0 -5 -5 -9 -12 -7 -7 1 -12 -3 -13 -10 0 -6 -3 -15 -7 -19 -15 -14 -8 -26
7 -14 8 7 15 8 15 2 0 -15 -26 -33 -35 -24 -4 4 -4 -3 0 -16 5 -17 2 -27 -10
-36 -15 -11 -16 -13 -2 -13 9 0 19 7 22 15 3 8 11 12 18 9 15 -6 41 20 28 28
-5 3 -12 1 -16 -5 -3 -5 -11 -10 -18 -10 -6 0 -1 10 11 23 18 17 24 19 31 9 7
-11 9 -10 14 3 4 9 3 13 -3 10 -20 -13 -9 14 12 29 24 17 33 46 14 46 -6 0
-20 -8 -30 -17z m28 -2 c3 -5 -1 -11 -9 -14 -9 -4 -12 -1 -8 9 6 16 10 17 17
5z m-41 -37 c-3 -8 -6 -14 -7 -12 -1 2 -7 11 -14 20 -11 14 -10 16 7 11 12 -3
17 -11 14 -19z"/>
<path d="M3415 5329 c-11 -17 1 -21 15 -4 8 9 8 15 2 15 -6 0 -14 -5 -17 -11z"/>
<path d="M1725 5306 c5 -26 4 -28 -9 -17 -13 11 -16 11 -17 -3 -3 -30 -4 -35
-14 -45 -7 -6 -16 -5 -28 3 -13 11 -15 16 -5 24 7 6 17 10 23 10 5 0 11 5 13
11 6 19 -14 12 -38 -14 -12 -13 -27 -22 -33 -18 -6 3 -7 1 -3 -5 3 -6 -3 -16
-15 -22 -20 -11 -20 -12 -3 -31 24 -27 35 -24 74 16 19 19 39 35 46 35 17 0
27 48 14 68 -9 14 -10 11 -5 -12z m-60 -84 c-3 -4 -22 -7 -41 -8 l-34 -2 22
18 c17 13 28 16 41 8 10 -5 16 -13 12 -16z"/>
<path d="M1749 5328 c-3 -10 -3 -66 0 -63 7 8 62 -26 56 -34 -2 -5 3 -8 12 -7
9 0 18 -5 21 -13 3 -10 0 -11 -9 -5 -11 6 -11 4 1 -12 22 -29 24 -30 18 -13
-4 9 -2 22 3 30 7 10 9 0 8 -31 -1 -25 -1 -58 0 -75 l3 -30 9 30 c5 17 5 31
-1 35 -5 3 -5 11 0 20 8 12 10 12 10 -4 0 -15 3 -16 15 -6 8 7 15 18 15 26 0
20 -21 28 -31 13 -5 -8 -9 -9 -9 -3 0 5 5 15 11 21 21 21 -12 60 -45 54 -5 -1
-6 6 -2 15 4 11 0 18 -14 21 -11 3 -18 9 -15 13 3 4 -4 10 -15 13 -11 3 -20 1
-20 -4 0 -5 -5 -9 -11 -9 -5 0 -7 5 -4 10 3 6 4 10 1 10 -3 0 -6 -1 -7 -2z
m45 -33 c3 -8 1 -15 -4 -15 -6 0 -10 5 -10 11 0 5 -5 7 -12 3 -7 -4 -8 -3 -4
4 10 16 23 15 30 -3z m32 -14 c-8 -12 4 -41 16 -41 5 0 6 6 2 13 -4 6 2 3 14
-7 12 -11 22 -24 22 -30 0 -6 -7 -3 -14 7 -8 10 -16 13 -17 8 -2 -6 -17 1 -34
15 -16 14 -25 23 -19 20 7 -3 14 1 18 9 3 8 8 15 11 15 4 0 4 -4 1 -9z"/>
<path d="M2895 5260 c-4 -11 -11 -18 -16 -15 -5 4 -6 -9 -2 -32 7 -44 7 -59 0
-90 -3 -13 -1 -23 5 -23 5 0 7 7 4 15 -3 9 1 18 10 22 8 3 13 12 10 19 -3 8
-1 14 4 14 6 0 10 5 10 11 0 5 -4 8 -9 4 -5 -3 -12 -1 -16 5 -3 5 -1 10 4 10
6 0 11 7 11 16 0 14 -2 15 -17 3 -15 -13 -15 -12 -5 8 7 12 17 25 22 28 13 8
13 25 1 25 -5 0 -13 -9 -16 -20z"/>
<path d="M2921 5234 c0 -11 3 -14 6 -6 3 7 2 16 -1 19 -3 4 -6 -2 -5 -13z"/>
<path d="M3310 5225 c-1 -5 -2 -13 -1 -17 0 -5 -3 -8 -9 -8 -5 0 -10 -5 -10
-12 0 -8 6 -7 16 4 9 9 14 22 11 30 -3 7 -6 9 -7 3z"/>
<path d="M1580 5185 c14 -17 13 -18 -2 -12 -13 4 -16 1 -12 -17 3 -16 -3 -26
-19 -35 -20 -11 -13 -10 31 5 12 4 10 0 -7 -15 -13 -12 -30 -21 -38 -21 -8 0
-11 -5 -8 -10 5 -8 11 -7 21 1 10 8 14 8 14 0 0 -6 -4 -11 -10 -11 -5 0 -10
-5 -10 -11 0 -7 7 -8 18 -4 9 3 2 -7 -17 -24 -28 -25 -34 -38 -33 -66 2 -41
21 -85 22 -49 0 35 21 84 33 77 5 -3 7 -1 3 5 -3 6 -2 13 4 17 6 4 8 11 5 16
-4 5 0 21 8 36 28 55 47 104 37 98 -5 -3 -10 -2 -10 2 0 5 -10 14 -22 22 -22
13 -22 13 -8 -4z m23 -29 c6 -15 -17 -16 -30 -1 -4 4 -2 5 5 1 6 -4 12 -2 12
3 0 15 7 14 13 -3z m-13 -65 c0 -6 -4 -13 -10 -16 -5 -3 -10 1 -10 9 0 9 5 16
10 16 6 0 10 -4 10 -9z m-42 -91 c-7 -10 -14 -18 -15 -16 -6 6 9 36 18 36 5 0
4 -9 -3 -20z"/>
<path d="M3146 5154 c-6 -15 -4 -15 11 -3 10 7 20 15 22 16 2 2 -3 3 -11 3 -9
0 -19 -7 -22 -16z"/>
<path d="M1906 5141 c-3 -5 0 -14 7 -19 10 -8 13 -6 14 9 2 19 -11 26 -21 10z"/>
<path d="M3255 5130 c-17 -19 -14 -25 10 -20 5 1 1 -8 -9 -19 -11 -12 -24 -21
-30 -21 -6 0 -2 7 8 15 11 8 16 15 11 15 -17 0 -43 -32 -38 -47 4 -10 0 -13
-12 -11 -10 2 -19 -4 -20 -12 -7 -34 -33 -82 -39 -71 -4 6 -4 17 0 24 4 6 -2
4 -14 -7 -21 -18 -21 -43 0 -30 8 5 9 1 5 -10 -4 -10 -7 -20 -7 -22 0 -2 -11
-2 -25 2 -14 3 -31 2 -38 -4 -6 -5 -19 -8 -27 -7 -10 2 -16 -5 -16 -16 0 -12
5 -17 13 -14 50 20 49 20 30 1 -12 -12 -26 -16 -41 -12 -17 4 -26 1 -30 -11
-4 -9 -9 -13 -13 -10 -3 4 -12 2 -20 -4 -9 -9 -13 -8 -13 0 0 6 -5 11 -12 11
-6 0 -9 -3 -5 -6 3 -4 -1 -13 -9 -21 -8 -8 -11 -19 -8 -25 5 -7 11 -5 19 5 14
19 30 23 19 5 -4 -7 -3 -8 4 -4 7 4 12 1 12 -6 0 -7 8 -1 18 13 9 14 23 25 30
23 7 -1 8 0 2 3 -5 2 -10 9 -10 14 0 6 9 5 21 -1 17 -10 23 -7 40 14 11 15 25
23 31 20 6 -4 8 -2 5 3 -6 9 14 20 45 27 3 0 10 5 15 10 5 5 2 6 -7 2 -8 -4
-7 -1 4 8 10 8 15 19 12 25 -11 17 12 51 29 45 8 -4 12 -11 9 -16 -4 -6 3 -5
15 1 11 7 21 16 21 21 0 14 -17 13 -22 -1 -2 -7 -8 -6 -17 4 -11 14 -8 15 20
14 26 -2 36 3 45 20 6 13 13 21 16 18 3 -3 4 6 2 20 -2 23 0 24 14 13 12 -10
14 -10 8 0 -4 6 -2 12 3 12 6 0 2 9 -9 20 -11 11 -22 20 -23 20 -2 0 -12 -9
-22 -20z m25 0 c0 -5 -5 -10 -11 -10 -5 0 -7 5 -4 10 3 6 8 10 11 10 2 0 4 -4
4 -10z m-17 -71 c-3 -11 -11 -18 -18 -15 -7 2 -17 0 -22 -5 -5 -5 -9 -1 -9 10
0 15 4 17 17 10 12 -6 19 -4 23 6 8 22 15 18 9 -6z m-288 -229 c3 -5 -1 -10
-10 -10 -9 0 -13 5 -10 10 3 6 8 10 10 10 2 0 7 -4 10 -10z"/>
<path d="M2900 5119 c0 -5 5 -7 10 -4 6 3 10 8 10 11 0 2 -4 4 -10 4 -5 0 -10
-5 -10 -11z"/>
<path d="M1885 5110 c3 -5 8 -10 11 -10 2 0 4 5 4 10 0 6 -5 10 -11 10 -5 0
-7 -4 -4 -10z"/>
<path d="M3135 5110 c-4 -6 -11 -8 -16 -4 -6 3 -5 -3 2 -14 15 -24 18 -23 24
7 4 23 0 27 -10 11z"/>
<path d="M1734 5093 c5 -15 3 -23 -4 -23 -6 0 -8 -4 -5 -10 3 -5 1 -19 -5 -30
-9 -16 -8 -20 4 -20 10 0 13 6 10 15 -4 8 -2 15 3 15 11 0 10 57 -2 68 -4 4
-4 -3 -1 -15z"/>
<path d="M1904 5075 c-6 -26 -8 -27 -15 -10 -6 16 -8 17 -8 3 -1 -9 -7 -19
-13 -21 -8 -3 -6 -6 5 -6 9 -1 17 -6 17 -12 0 -5 -4 -8 -9 -4 -5 3 -12 1 -16
-5 -3 -5 -2 -10 4 -10 6 0 9 -14 6 -32 -4 -29 -4 -30 4 -8 l9 25 1 -28 c1 -15
-5 -36 -11 -47 -10 -15 -10 -22 0 -32 11 -11 12 -9 6 6 -5 14 -4 17 5 12 12
-8 11 -57 -2 -67 -16 -12 -17 -57 -1 -63 9 -3 12 -2 9 4 -4 6 0 24 9 40 8 17
11 30 7 30 -4 0 -4 21 1 48 19 110 21 155 7 146 -12 -6 -12 -5 -1 9 10 11 11
21 4 34 -9 16 -11 14 -18 -12z m3 -112 c-2 -16 -4 -5 -4 22 0 28 2 40 4 28 2
-13 2 -35 0 -50z"/>
<path d="M2897 5093 c-14 -14 -7 -43 11 -42 9 0 12 3 6 5 -7 3 -10 14 -7 24 5
20 2 25 -10 13z"/>
<path d="M1510 5039 c-11 -19 -10 -20 10 -9 11 6 18 15 15 21 -9 13 -13 11
-25 -12z"/>
<path d="M2898 5033 c10 -4 10 -8 0 -21 -10 -13 -11 -14 0 -8 9 6 11 1 8 -18
-3 -14 0 -26 6 -26 5 0 8 7 4 15 -3 8 0 15 6 15 7 0 6 5 -2 15 -10 12 -10 15
1 15 11 0 11 2 -1 10 -8 5 -19 9 -25 9 -5 0 -4 -3 3 -6z"/>
<path d="M3105 5030 c-4 -6 -10 -8 -15 -5 -5 3 -11 1 -14 -4 -8 -13 22 -7 36
7 7 7 9 12 6 12 -4 0 -10 -5 -13 -10z"/>
<path d="M3927 5019 c7 -7 15 -10 18 -7 3 3 -2 9 -12 12 -14 6 -15 5 -6 -5z"/>
<path d="M3836 5009 c5 -9 -1 -10 -20 -5 -51 13 -75 -6 -53 -41 5 -7 4 -13 -2
-13 -5 0 -15 8 -20 18 -6 9 -11 12 -11 6 0 -27 27 -35 63 -20 20 8 39 11 43 8
4 -4 5 0 1 9 -4 13 -1 16 13 12 11 -3 18 -10 17 -15 -1 -6 5 -13 13 -15 13 -4
13 -3 0 7 -12 10 -10 10 10 5 14 -4 40 -7 58 -8 17 -1 32 -6 32 -12 0 -14 20
17 20 33 0 6 -10 12 -22 12 -13 0 -36 7 -52 15 -31 17 -60 20 -36 5 20 -13 -1
-13 -35 0 -19 7 -24 7 -19 -1z m63 -24 c16 -5 21 -4 17 4 -5 7 -1 8 10 4 11
-4 13 -8 6 -11 -7 -2 -10 -8 -7 -12 3 -5 -11 -2 -32 6 -37 16 -62 32 -33 22 8
-3 26 -9 39 -13z m-79 -4 c0 -9 -24 -21 -41 -21 -16 0 -10 18 9 23 28 8 32 7
32 -2z m164 -9 c2 -4 -5 -9 -17 -9 -17 -2 -19 0 -7 7 18 12 18 12 24 2z"/>
<path d="M3965 5011 c-3 -5 5 -11 17 -13 19 -2 23 -10 24 -38 1 -19 5 -44 9
-54 7 -15 5 -17 -6 -11 -8 4 -11 5 -7 0 4 -4 3 -14 -3 -21 -7 -8 -7 -14 1 -19
8 -5 4 -12 -10 -22 -11 -8 -19 -22 -18 -31 2 -10 -3 -16 -11 -14 -12 3 -12 0
-2 -12 9 -11 9 -16 0 -22 -8 -4 -9 -3 -5 4 4 7 4 12 -1 12 -12 0 -40 -20 -29
-20 6 0 -6 -12 -25 -26 -29 -22 -30 -25 -9 -19 22 7 23 6 11 -8 -9 -12 -18
-14 -30 -8 -11 6 -23 4 -36 -6 -16 -13 -17 -15 -2 -10 9 4 17 1 17 -5 0 -7 4
-7 14 1 10 9 15 8 19 -3 4 -10 1 -13 -7 -10 -7 3 -13 -2 -13 -11 0 -8 3 -15 7
-15 13 0 68 59 62 66 -4 4 1 4 11 1 16 -6 22 3 18 27 -1 5 6 6 15 2 14 -5 15
-4 5 8 -8 10 -9 16 -1 21 5 3 10 1 10 -5 0 -7 6 -5 15 4 8 8 15 20 15 26 0 6
4 9 9 6 5 -4 7 4 3 16 -5 21 -6 21 -13 2 -5 -13 -8 -15 -8 -3 -1 8 5 21 12 28
10 10 9 15 -5 25 -10 7 -15 16 -11 20 4 4 15 -3 24 -15 16 -22 40 -19 38 4 0
9 -2 9 -6 0 -2 -7 -9 -13 -14 -13 -6 0 -7 5 -4 10 3 6 2 10 -3 10 -6 0 -8 8
-5 19 3 10 0 22 -6 25 -6 4 -10 17 -10 29 1 17 2 18 6 5 2 -10 9 -18 14 -18 6
0 8 10 4 23 -5 17 -4 19 4 6 6 -9 9 -30 6 -48 -2 -17 1 -31 6 -31 5 0 9 15 9
34 0 35 -44 101 -60 91 -5 -3 -11 -1 -15 5 -8 13 -22 13 -30 1z m66 -28 c13
-16 12 -17 -3 -4 -17 13 -22 21 -14 21 2 0 10 -8 17 -17z m-37 -189 c-3 -18
-1 -23 7 -18 8 4 9 3 5 -4 -4 -6 -14 -8 -22 -5 -10 4 -12 9 -5 16 5 5 7 16 4
23 -3 8 0 14 5 14 6 0 9 -12 6 -26z m-37 -68 c0 -17 -34 -28 -43 -14 -7 11 13
28 32 28 6 0 11 -6 11 -14z m-47 -51 c-7 -9 -15 -13 -17 -11 -7 7 7 26 19 26
6 0 6 -6 -2 -15z"/>
<path d="M1730 4991 c0 -6 5 -13 10 -16 6 -3 10 1 10 9 0 9 -4 16 -10 16 -5 0
-10 -4 -10 -9z"/>
<path d="M3177 4976 c-3 -8 0 -17 7 -19 10 -4 12 1 9 14 -6 23 -9 24 -16 5z"/>
<path d="M1708 4937 c-3 -23 -1 -51 2 -62 5 -13 9 0 11 38 5 68 -7 88 -13 24z"/>
<path d="M3059 4973 c9 -4 5 -12 -15 -30 -23 -19 -24 -22 -6 -13 12 6 22 8 22
5 0 -4 7 1 16 9 18 18 11 36 -14 35 -12 0 -13 -2 -3 -6z"/>
<path d="M3710 4975 c-2 -5 -2 -13 -2 -17 2 -11 -27 -18 -33 -8 -4 6 -1 10 6
10 7 0 10 3 7 6 -4 3 -17 -2 -30 -10 -14 -9 -28 -13 -33 -9 -4 5 -5 2 -1 -4 4
-7 2 -13 -3 -13 -6 0 -11 -7 -11 -16 0 -8 -5 -12 -10 -9 -6 4 -7 11 -4 17 4 6
-3 5 -15 -2 -26 -13 -40 -42 -23 -48 7 -2 12 -11 12 -19 0 -11 -3 -13 -13 -5
-23 19 -45 -14 -23 -35 6 -5 6 -2 1 6 -6 11 -4 13 8 8 18 -7 37 13 40 41 0 12
6 18 14 15 7 -3 10 -10 7 -15 -12 -20 35 13 50 34 11 15 16 18 16 8 0 -10 3
-11 8 -4 4 6 15 10 25 8 9 -1 15 2 11 7 -3 5 -10 7 -15 4 -5 -4 -9 -1 -9 6 0
6 8 9 20 6 22 -6 23 -2 10 28 -5 11 -9 16 -10 10z m-34 -37 c4 -7 3 -8 -5 -4
-7 4 -18 -5 -29 -23 -17 -31 -32 -40 -32 -21 0 6 5 10 10 10 6 0 9 4 8 9 -2 5
6 17 17 25 24 19 22 18 31 4z m-82 -36 c2 -4 -4 -8 -14 -8 -10 0 -16 4 -14 8
3 4 9 8 14 8 5 0 11 -4 14 -8z"/>
<path d="M1485 4940 c-3 -5 -1 -10 4 -10 6 0 11 5 11 10 0 6 -2 10 -4 10 -3 0
-8 -4 -11 -10z"/>
<path d="M1737 4943 c-4 -3 -7 -24 -7 -46 0 -52 11 -41 14 12 1 23 2 41 1 41
-1 0 -5 -3 -8 -7z"/>
<path d="M2916 4941 c-4 -5 -2 -12 3 -15 5 -4 12 -2 15 3 4 5 2 12 -3 15 -5 4
-12 2 -15 -3z"/>
<path d="M1496 4905 c-9 -26 -7 -32 5 -12 6 10 9 21 6 23 -2 3 -7 -2 -11 -11z"/>
<path d="M2920 4891 c0 -10 19 -25 25 -20 1 2 -3 10 -11 17 -8 7 -14 8 -14 3z"/>
<path d="M1517 4884 c-4 -4 -7 -16 -7 -27 0 -15 -3 -17 -14 -8 -11 9 -12 6 -8
-14 2 -14 8 -28 13 -31 5 -3 9 -10 9 -16 0 -6 -6 -6 -15 2 -12 10 -11 3 4 -33
14 -33 16 -47 8 -51 -7 -2 -4 -5 6 -5 9 -1 17 -6 17 -12 0 -5 -4 -8 -9 -5 -5
4 -4 -5 2 -18 7 -13 15 -22 19 -20 5 3 8 0 8 -6 0 -5 14 -9 31 -8 l31 2 -26
21 c-14 11 -26 25 -26 29 0 5 7 2 17 -5 15 -13 15 -12 3 8 -8 12 -18 19 -22
16 -11 -6 -38 16 -38 31 0 6 6 4 13 -5 10 -13 15 -14 24 -4 7 7 8 17 2 26 -7
11 -9 10 -10 -6 0 -12 -5 -6 -11 15 -5 19 -14 39 -19 45 -5 5 -9 13 -9 18 0
14 21 -4 30 -27 7 -15 9 -7 7 33 -2 50 -13 71 -30 55z m13 -124 c0 -5 -4 -10
-10 -10 -5 0 -10 5 -10 10 0 6 5 10 10 10 6 0 10 -4 10 -10z m45 -118 c-6 -7
-35 18 -35 31 0 5 9 2 20 -8 11 -10 18 -20 15 -23z"/>
<path d="M3510 4869 c0 -5 -5 -7 -10 -4 -6 4 -9 1 -8 -6 2 -7 -6 -15 -17 -17
-11 -2 -27 -10 -36 -18 -9 -8 -20 -11 -24 -7 -5 5 -3 0 4 -9 7 -10 19 -18 25
-18 6 0 5 4 -3 9 -9 6 -10 11 -2 15 12 8 27 -21 17 -31 -4 -4 -19 -2 -35 4
-23 8 -33 7 -52 -8 -13 -10 -31 -19 -39 -20 -10 0 -11 -2 -2 -6 6 -2 12 -12
12 -21 0 -15 -2 -15 -10 -2 -6 9 -10 11 -10 3 0 -7 -6 -10 -14 -7 -8 3 -17 0
-22 -7 -4 -7 -2 -15 4 -17 7 -2 12 -8 12 -13 0 -6 -9 -5 -22 2 -18 10 -20 9
-15 -4 4 -11 2 -14 -9 -10 -10 3 -12 0 -8 -10 6 -17 -29 -41 -49 -33 -7 2 -4
5 6 5 10 1 15 5 12 11 -4 6 -13 5 -25 -2 -10 -7 -16 -16 -14 -20 3 -4 -1 -8
-9 -8 -8 0 -17 -7 -21 -15 -4 -13 -2 -14 14 -5 18 10 24 7 22 -11 -1 -4 6 -6
15 -5 9 0 18 -5 21 -13 3 -10 -2 -11 -19 -6 -13 4 -27 12 -31 18 -4 7 -12 6
-24 -4 -11 -9 -15 -9 -10 -1 4 6 2 12 -3 12 -6 0 -11 -6 -11 -12 0 -9 -3 -9
-9 1 -7 11 -11 5 -16 -22 -7 -36 -15 -44 -28 -30 -4 3 -2 12 5 20 14 18 3 29
-15 15 -8 -7 -17 -9 -20 -5 -4 3 -7 1 -7 -6 0 -8 -7 -11 -15 -7 -8 3 -15 1
-15 -4 0 -5 6 -10 13 -13 6 -2 1 -2 -13 1 -35 7 -60 7 -94 -3 -20 -5 -27 -5
-22 3 5 8 -2 8 -24 1 -17 -6 -53 -9 -80 -7 -27 3 -55 1 -62 -3 -7 -4 -16 -3
-20 3 -5 9 -13 9 -30 1 -27 -12 -51 -6 -41 10 4 7 -1 6 -10 -2 -18 -14 -18
-13 -21 33 0 16 -7 31 -15 34 -8 3 -11 0 -7 -7 12 -19 -4 -33 -22 -19 -13 11
-14 11 -8 0 5 -9 3 -12 -7 -10 -9 2 -16 -1 -17 -7 -2 -16 -32 -45 -40 -40 -4
3 -11 -2 -14 -11 -8 -22 -6 -43 2 -23 6 14 9 15 20 3 7 -8 8 -14 2 -14 -5 0
-10 -5 -10 -11 0 -5 5 -7 11 -3 6 3 15 1 19 -5 9 -16 63 -3 57 14 -3 6 1 12 8
12 7 0 11 -6 8 -13 -2 -6 1 -15 8 -20 8 -5 10 -3 4 6 -6 10 -4 12 9 7 13 -5
17 -3 13 6 -10 26 31 36 155 38 92 1 136 -3 175 -16 48 -16 54 -16 68 -1 9 9
26 16 39 16 12 0 26 4 32 8 5 5 32 7 61 4 39 -3 50 -7 46 -18 -3 -9 2 -14 13
-14 11 0 30 -3 44 -5 22 -5 23 -4 5 4 -15 8 -8 10 32 8 28 -2 49 1 47 5 -3 4
3 8 14 8 10 0 27 9 37 20 10 11 26 20 37 20 10 0 27 -9 38 -20 14 -14 20 -16
20 -6 0 7 -9 20 -21 27 -19 13 -18 14 15 14 40 0 40 1 26 -26 -7 -13 -7 -19 0
-19 5 0 10 6 10 13 0 9 9 12 29 9 16 -2 32 1 35 7 4 6 2 11 -5 11 -7 0 -9 8
-6 21 6 21 5 21 -12 3 -16 -17 -16 -20 -2 -26 14 -6 14 -7 0 -7 -23 -1 -31 10
-18 26 14 16 1 17 -35 4 -18 -8 -28 -6 -37 5 -7 8 -18 13 -25 10 -25 -9 -23 7
2 21 33 17 39 17 25 -1 -9 -11 -9 -16 0 -22 8 -4 9 -3 5 4 -4 7 -1 12 9 12 12
0 15 5 11 16 -3 9 -6 18 -6 20 0 3 -9 0 -19 -6 -11 -5 -28 -7 -38 -4 -15 5
-15 4 -3 -5 10 -7 11 -11 3 -11 -7 0 -14 1 -16 3 -2 1 -15 -6 -30 -16 -18 -12
-25 -13 -21 -4 3 8 -2 14 -11 14 -8 0 -15 -4 -15 -8 0 -4 -8 -5 -19 -2 -10 3
-22 -1 -26 -8 -5 -7 -4 -10 3 -6 5 4 21 3 34 -2 18 -7 12 -9 -29 -8 -35 1 -47
5 -36 11 13 7 13 10 2 17 -11 8 -10 12 5 24 11 8 14 15 8 15 -7 0 -12 4 -12 9
0 5 10 7 22 3 14 -3 19 -2 14 6 -4 7 -2 12 3 12 6 0 11 -5 11 -12 0 -7 16 4
36 25 20 20 41 37 46 37 5 0 6 5 2 12 -5 8 -2 9 9 5 10 -4 16 -2 14 6 -1 7 7
11 18 9 14 -2 16 0 7 6 -9 6 -1 12 27 21 22 6 43 16 46 21 4 6 -1 7 -12 3 -16
-6 -16 -5 -4 11 13 16 25 66 15 66 -2 0 -4 -5 -4 -11z m-18 -52 c-7 -8 -9 -17
-5 -20 3 -4 4 -7 2 -7 -3 0 -13 10 -23 21 -18 21 -18 22 3 16 12 -3 21 0 21 6
0 6 3 7 6 4 4 -4 2 -13 -4 -20z m-83 -53 c-7 -8 -20 -12 -30 -9 -11 4 -19 2
-19 -4 0 -6 5 -11 10 -11 21 0 9 -18 -21 -30 -19 -8 -26 -16 -19 -20 8 -5 8
-9 -2 -12 -8 -3 -18 4 -24 17 -10 21 -9 23 14 22 20 -2 27 4 32 23 5 19 12 24
29 22 17 -1 22 2 18 12 -4 10 -1 13 9 9 11 -4 12 -8 3 -19z m-178 -151 c-11
-5 -11 -7 0 -14 8 -5 9 -9 3 -9 -5 0 -18 6 -27 13 -15 11 -14 12 10 13 16 1
22 -1 14 -3z m164 -23 c-5 -9 16 -15 38 -11 5 1 6 -3 2 -9 -9 -14 -45 -12 -45
3 -1 6 -8 -1 -17 -18 -8 -16 -17 -32 -19 -34 -7 -8 -94 -11 -94 -3 0 9 58 32
82 32 9 0 23 11 32 25 15 23 35 37 21 15z m-810 -44 c0 -15 -4 -21 -9 -16 -5
5 -6 16 -3 24 9 22 12 20 12 -8z m-30 -28 c0 -21 -4 -37 -10 -35 -5 2 -11 9
-11 15 -1 7 -3 13 -4 15 -1 1 -4 11 -5 22 -1 13 4 21 14 21 12 0 16 -10 16
-38z m562 20 c-3 -8 -6 -5 -6 6 -1 11 2 17 5 13 3 -3 4 -12 1 -19z m-152 -18
c-4 -6 7 -10 25 -10 19 0 29 -4 25 -10 -4 -6 -11 -8 -16 -5 -5 4 -9 1 -9 -6 0
-10 -3 -10 -11 -2 -6 6 -19 9 -28 6 -14 -4 -14 -3 -1 6 12 9 11 11 -10 12
l-25 1 25 8 c14 4 26 8 28 9 2 1 0 -3 -3 -9z m-451 -9 c3 -5 -1 -11 -9 -14 -9
-4 -12 -1 -8 9 6 16 10 17 17 5z m121 -1 c6 0 2 -7 -7 -14 -22 -16 -61 -14
-63 5 -2 13 16 15 70 9z m-82 -47 c-7 -2 -19 -2 -25 0 -7 3 -2 5 12 5 14 0 19
-2 13 -5z"/>
<path d="M2530 4529 c0 -5 5 -7 10 -4 6 3 10 8 10 11 0 2 -4 4 -10 4 -5 0 -10
-5 -10 -11z"/>
<path d="M3899 4863 c-13 -16 -12 -17 4 -4 16 13 21 21 13 21 -2 0 -10 -8 -17
-17z"/>
<path d="M1860 4855 c-7 -8 -9 -15 -5 -15 4 0 3 -6 -2 -12 -11 -13 -10 -37 2
-75 6 -18 3 -23 -11 -23 -15 0 -16 2 -5 9 9 6 10 11 2 15 -10 6 -15 -6 -12
-26 0 -5 -3 -8 -7 -8 -4 0 -8 -9 -8 -19 0 -14 4 -17 12 -11 6 6 14 7 17 3 9
-9 9 -23 0 -22 -5 1 -11 0 -15 -1 -5 -1 -12 -3 -18 -4 -5 0 -10 -5 -9 -10 0
-5 -5 -13 -13 -17 -9 -6 -9 -9 -1 -9 6 0 14 -8 16 -17 4 -14 5 -13 6 4 0 12 6
25 13 29 8 5 9 2 5 -10 -4 -10 -7 -24 -7 -32 0 -8 -9 -14 -20 -14 -14 0 -18
-5 -13 -17 4 -10 11 -21 16 -24 5 -4 4 -15 -2 -28 -7 -11 -8 -21 -2 -21 12 0
21 25 21 56 0 17 4 23 12 18 7 -5 8 -3 4 5 -5 7 0 21 10 33 18 19 18 20 1 33
-19 14 -23 26 -6 23 19 -5 21 19 4 36 -9 9 -12 16 -6 16 5 0 13 -5 17 -11 13
-21 22 12 13 49 -4 20 -6 40 -3 44 3 4 0 8 -6 8 -7 0 -5 7 4 16 9 8 16 22 16
30 0 18 -4 18 -20 -1z m-19 -238 c-10 -9 -11 -8 -5 6 3 10 9 15 12 12 3 -3 0
-11 -7 -18z"/>
<path d="M1730 4830 c0 -11 -3 -20 -7 -20 -5 0 -9 -16 -10 -35 -2 -19 1 -35 7
-35 5 0 7 7 4 15 -4 8 -2 15 2 15 5 0 10 18 11 40 2 22 0 40 -2 40 -3 0 -5 -9
-5 -20z"/>
<path d="M3855 4841 c2 -4 -17 -15 -41 -25 -24 -10 -44 -22 -44 -28 0 -5 -4
-7 -8 -4 -5 3 -21 -6 -37 -20 -15 -13 -35 -24 -44 -25 -12 0 -11 -3 4 -9 17
-8 18 -9 3 -11 -20 -2 -37 -5 -40 -9 -2 -1 -10 -3 -20 -5 -9 -2 -24 -7 -33
-13 -16 -8 -15 -10 3 -14 13 -4 27 1 38 13 9 10 20 16 25 13 11 -6 53 15 45
23 -3 3 2 12 12 19 13 9 19 9 24 1 6 -9 8 -8 8 1 0 7 5 10 10 7 6 -3 10 -1 10
6 0 7 3 10 6 7 3 -4 14 2 25 13 11 11 24 17 29 14 5 -3 7 0 4 8 -3 10 4 17 20
21 28 7 36 23 11 23 -8 0 -12 -3 -10 -6z"/>
<path d="M2871 4789 c-18 -24 -25 -28 -32 -18 -6 10 -9 11 -9 2 0 -24 2 -28
12 -25 6 1 16 -2 23 -8 18 -15 50 23 40 47 -5 10 -7 21 -7 26 3 14 -4 7 -27
-24z m29 -13 c0 -8 -9 -14 -19 -13 -15 1 -17 4 -9 14 14 17 28 16 28 -1z"/>
<path d="M2920 4780 c0 -5 7 -7 15 -4 8 4 15 8 15 10 0 2 -7 4 -15 4 -8 0 -15
-4 -15 -10z"/>
<path d="M2802 4750 c2 -8 -3 -14 -10 -12 -8 1 -11 -2 -7 -7 3 -6 13 -7 23 -4
15 6 16 5 2 -12 -14 -17 -14 -17 5 -8 11 6 23 11 28 12 4 1 7 3 7 6 0 3 -2 4
-4 3 -2 -2 -14 6 -26 17 -15 14 -21 15 -18 5z"/>
<path d="M2743 4704 c-17 -14 -16 -14 5 -4 12 6 22 7 22 1 0 -5 -7 -11 -15
-15 -8 -3 -15 -10 -15 -16 0 -18 17 -11 33 14 13 20 14 25 3 29 -8 3 -22 -1
-33 -9z"/>
<path d="M1722 4690 c0 -14 2 -19 5 -12 2 6 2 18 0 25 -3 6 -5 1 -5 -13z"/>
<path d="M2698 4679 c-11 -6 -15 -18 -12 -37 3 -20 2 -23 -6 -12 -8 13 -10 12
-10 -3 0 -24 24 -16 28 9 2 10 10 24 18 31 19 14 4 24 -18 12z"/>
<path d="M3220 4665 c0 -8 4 -15 10 -15 5 0 7 7 4 15 -4 8 -8 15 -10 15 -2 0
-4 -7 -4 -15z"/>
<path d="M3536 4659 c-10 -10 -22 -16 -27 -14 -4 3 -10 1 -13 -4 -4 -5 -2 -12
3 -15 5 -4 12 -2 16 4 4 6 11 8 16 5 5 -4 12 1 15 9 3 9 9 14 13 12 4 -3 13 0
21 6 12 8 12 9 -2 5 -9 -3 -18 -2 -20 2 -2 5 -12 0 -22 -10z"/>
<path d="M2650 4640 c-6 -11 -7 -20 -3 -20 5 0 14 9 21 20 7 11 8 20 2 20 -5
0 -14 -9 -20 -20z"/>
<path d="M2710 4650 c0 -5 5 -10 10 -10 6 0 10 5 10 10 0 6 -4 10 -10 10 -5 0
-10 -4 -10 -10z"/>
<path d="M3823 4648 c1 -7 6 -16 10 -19 5 -3 2 -9 -7 -12 -12 -5 -16 0 -17 16
0 12 -3 16 -6 10 -2 -7 -14 -11 -26 -9 -12 1 -17 1 -10 -1 20 -7 24 -33 5 -34
-9 0 -27 -2 -39 -3 -13 -2 -23 1 -23 6 0 7 15 12 32 9 4 0 5 6 2 14 -5 13 -8
13 -21 -1 -9 -9 -24 -12 -37 -9 -11 4 -16 3 -11 -2 6 -4 17 -17 25 -27 12 -16
12 -18 1 -11 -10 6 -12 4 -6 -5 5 -9 4 -11 -4 -6 -6 4 -9 11 -6 15 2 5 -7 13
-20 19 -14 7 -27 7 -30 2 -3 -5 -13 -6 -21 -3 -11 4 -15 0 -12 -13 2 -11 12
-22 23 -26 17 -6 16 -7 -5 -5 -14 1 -24 8 -23 15 2 6 -2 12 -8 12 -6 0 -8 -7
-5 -16 3 -9 6 -20 6 -25 0 -6 9 -7 23 -3 12 4 27 7 33 7 6 0 9 9 6 19 -2 10
-8 15 -13 12 -10 -6 -12 9 -2 19 3 4 17 -5 31 -20 24 -26 25 -27 41 -7 9 10
27 19 41 19 50 -1 123 49 103 69 -11 11 -33 6 -30 -6z"/>
<path d="M1722 4615 c1 -22 -1 -46 -6 -53 -4 -7 -1 -12 8 -12 9 0 16 5 16 11
0 5 5 7 11 3 6 -3 8 -17 5 -30 -4 -13 -2 -24 3 -24 5 0 11 13 13 29 2 17 1 28
-3 26 -10 -7 -26 16 -38 55 l-10 35 1 -40z"/>
<path d="M1545 4610 c-6 -10 31 -29 50 -25 6 1 7 0 2 -2 -4 -3 -5 -9 -1 -14 8
-13 -10 -11 -23 2 -9 9 -11 7 -7 -8 4 -15 12 -19 27 -16 13 3 18 1 11 -4 -20
-15 -13 -41 10 -37 12 3 15 2 8 -2 -9 -4 -5 -12 13 -26 19 -15 23 -23 15 -33
-7 -9 -6 -16 4 -24 11 -9 15 -6 20 15 7 25 8 25 20 8 12 -16 16 -16 31 -4 28
23 35 53 17 73 -9 10 -11 17 -4 17 7 0 12 4 12 9 0 5 -9 7 -21 4 -14 -4 -17
-9 -10 -16 13 -13 15 -41 2 -33 -4 3 -6 -6 -3 -20 4 -24 3 -25 -15 -15 -22 11
-38 38 -42 71 0 6 -4 9 -8 9 -19 -3 -33 2 -33 12 0 5 5 7 12 3 7 -4 8 -3 4 5
-4 6 -12 9 -17 5 -6 -3 -7 5 -3 22 5 18 3 25 -4 20 -6 -3 -13 0 -15 6 -4 10
-6 10 -6 1 -1 -7 -11 -13 -23 -12 -22 0 -22 1 -3 9 16 7 17 9 3 9 -9 1 -20 -4
-23 -9z m105 -90 c8 -5 12 -10 7 -10 -4 0 1 -12 10 -27 l18 -28 -25 16 c-14
10 -24 24 -22 32 1 9 -7 17 -20 20 -20 4 -20 4 -3 5 11 1 27 -3 35 -8z m93
-35 c-3 -9 -8 -14 -10 -11 -3 3 -2 9 2 15 9 16 15 13 8 -4z"/>
<path d="M2599 4602 c5 -9 10 -21 11 -27 1 -5 4 -12 7 -15 4 -3 3 1 -1 8 -5 8
0 12 13 12 21 0 37 15 23 24 -5 3 -20 7 -35 10 -23 4 -26 2 -18 -12z m42 -10
c-7 -2 -18 1 -23 6 -8 8 -4 9 13 5 13 -4 18 -8 10 -11z"/>
<path d="M3396 4515 c-11 -9 -14 -15 -6 -20 6 -4 17 -1 25 5 8 6 19 9 25 5 5
-3 10 -2 10 3 0 16 -35 20 -54 7z"/>
<path d="M1766 4482 c-10 -31 -42 -62 -64 -62 -11 0 -23 -7 -26 -16 -9 -24 -7
-31 4 -14 8 12 10 9 10 -13 0 -15 7 -30 15 -33 8 -4 12 -10 9 -15 -3 -5 0 -9
6 -9 6 0 9 -4 6 -9 -3 -5 2 -15 11 -22 12 -10 14 -10 9 -1 -4 6 -3 12 2 12 6
0 12 -7 16 -15 3 -8 1 -15 -5 -15 -11 0 16 -46 44 -74 15 -15 16 -20 5 -28
-10 -7 -8 -8 5 -4 10 3 15 2 12 -3 -8 -14 7 -20 30 -10 18 7 18 8 2 8 -14 1
-17 7 -13 24 3 12 3 16 0 10 -3 -7 -10 -13 -15 -13 -6 0 -5 8 1 20 9 16 8 22
-5 26 -8 3 -12 10 -9 15 3 5 -2 12 -11 15 -14 6 -14 9 -3 16 10 8 9 9 -4 4
-10 -3 -20 -1 -23 4 -4 6 1 10 9 10 18 0 21 16 6 25 -6 4 -8 11 -5 16 4 5 -1
9 -9 9 -10 0 -13 -6 -10 -15 4 -8 11 -15 17 -15 6 0 8 -3 4 -6 -3 -3 -12 -2
-19 2 -7 5 -17 9 -23 9 -5 0 -11 15 -13 33 -2 17 -8 32 -13 32 -6 0 -7 -4 -4
-10 3 -5 1 -10 -5 -10 -7 0 -9 7 -6 16 3 9 6 20 6 25 0 4 7 5 17 2 11 -4 14
-3 9 5 -4 7 -3 12 2 12 5 0 12 -10 16 -22 8 -33 6 -46 -4 -23 -7 15 -8 11 -8
-20 0 -22 2 -32 5 -22 2 9 10 17 18 17 7 0 16 7 19 16 8 22 7 31 -2 16 -6 -8
-12 -2 -19 21 -8 26 -7 40 3 58 7 13 13 18 14 12 0 -19 17 -16 24 4 4 10 4 14
0 10 -4 -4 -13 -2 -20 4 -9 7 -14 5 -18 -9z m31 -244 c-8 -6 -5 -10 10 -14 13
-4 20 -11 17 -16 -3 -5 -14 -2 -25 8 -10 9 -16 21 -13 25 3 5 0 9 -5 9 -6 0
-11 5 -11 10 0 6 8 5 20 -2 14 -9 16 -14 7 -20z"/>
<path d="M3075 4480 c3 -5 11 -10 16 -10 6 0 7 5 4 10 -3 6 -11 10 -16 10 -6
0 -7 -4 -4 -10z"/>
<path d="M1610 4471 c0 -10 19 -25 25 -20 1 2 -3 10 -11 17 -8 7 -14 8 -14 3z"/>
<path d="M2406 4454 c-6 -15 -4 -15 11 -3 11 9 14 10 9 2 -4 -7 -3 -20 2 -29
8 -14 11 -14 23 -2 11 12 16 13 26 2 18 -18 16 -23 -8 -19 -29 6 -60 -16 -53
-37 3 -10 1 -18 -5 -18 -6 0 -10 6 -8 13 1 6 -6 11 -15 11 -14 -1 -15 2 -8 17
7 12 6 20 -2 25 -7 4 -10 4 -6 -1 4 -4 1 -13 -8 -19 -22 -17 -27 -78 -8 -102
8 -10 13 -14 10 -8 -5 11 22 43 31 37 10 -8 23 -1 23 13 0 8 4 13 9 10 5 -3
15 2 22 11 11 13 11 17 2 20 -27 9 -11 21 23 18 20 -2 33 -1 30 2 -3 4 11 14
31 24 21 9 32 18 25 18 -7 1 -22 -4 -33 -9 -13 -8 -19 -7 -19 0 0 7 -6 10 -12
7 -7 -2 -18 2 -23 10 -16 21 -62 26 -69 7z m39 -84 c3 -5 1 -10 -4 -10 -6 0
-11 5 -11 10 0 6 2 10 4 10 3 0 8 -4 11 -10z m-42 -44 c-3 -4 -9 -2 -14 5 -5
9 -9 10 -9 3 0 -7 -7 -15 -16 -18 -15 -6 -11 7 10 30 12 13 38 -5 29 -20z"/>
<path d="M1771 4428 c-1 -21 3 -26 15 -21 9 3 11 9 6 12 -5 3 -12 13 -15 21
-3 9 -6 4 -6 -12z"/>
<path d="M2399 4421 c7 -5 11 -14 7 -20 -5 -7 -1 -9 9 -5 12 5 13 9 4 20 -6 8
-17 14 -23 14 -6 0 -5 -4 3 -9z"/>
<path d="M1333 4269 c-13 -5 -23 -5 -23 -1 0 4 -5 -1 -11 -10 -5 -10 -15 -18
-22 -18 -7 0 -6 4 3 10 8 5 10 10 4 10 -5 0 -19 -6 -29 -14 -16 -12 -17 -16
-6 -29 7 -9 10 -22 6 -29 -4 -7 0 -5 8 5 14 17 33 24 23 9 -3 -5 1 -9 9 -9 8
0 15 4 15 9 0 5 4 6 10 3 5 -3 7 0 4 8 -3 8 0 18 5 22 6 3 9 11 6 16 -4 5 -4
9 -2 9 3 0 13 -12 22 -27 10 -16 12 -22 4 -15 -18 17 -34 15 -19 -3 14 -17 77
-13 94 6 8 8 3 9 -20 5 -21 -5 -35 -2 -42 7 -9 11 -8 14 3 14 8 0 12 -4 9 -9
-3 -4 2 -8 11 -8 9 0 13 5 10 10 -3 6 -2 10 2 10 5 0 18 7 29 15 18 14 18 14
-9 15 -16 0 -26 -4 -22 -10 8 -12 3 -12 -27 -1 -13 5 -33 5 -45 0z m-26 -45
c0 -7 -10 -11 -23 -10 -12 0 -20 4 -18 8 2 3 -2 8 -8 11 -7 2 1 4 18 3 17 -1
31 -6 31 -12z"/>
<path d="M1463 4261 c-3 -13 -11 -17 -26 -14 -20 4 -20 3 -4 -7 13 -8 15 -15
8 -24 -11 -13 -11 -57 0 -50 4 2 6 12 4 22 -1 9 7 22 19 29 24 14 48 17 27 4
-9 -6 -10 -11 -2 -15 6 -4 11 -2 11 4 0 6 4 9 8 6 5 -3 20 1 35 9 15 7 29 10
32 5 3 -4 -1 -11 -7 -13 -9 -4 -10 -6 -1 -6 13 -1 28 17 20 25 -2 3 -14 7 -26
9 -14 3 -20 0 -16 -8 3 -7 -1 -2 -10 10 -16 21 -52 22 -39 1 4 -6 1 -8 -7 -6
-8 3 -13 12 -11 22 4 22 -9 20 -15 -3z m57 -16 c0 -8 -4 -15 -10 -15 -5 0 -7
7 -4 15 4 8 8 15 10 15 2 0 4 -7 4 -15z"/>
<path d="M1210 4225 c-7 -8 -19 -15 -26 -15 -8 0 -14 -7 -14 -15 0 -9 -6 -15
-13 -13 -13 3 -62 -41 -62 -57 -1 -5 -7 -9 -14 -7 -7 1 -10 -2 -6 -8 3 -6 10
-8 14 -5 5 2 6 -7 3 -21 -5 -26 -5 -26 22 -9 14 10 26 19 26 21 0 8 -25 -1
-32 -11 -5 -6 -8 -5 -8 3 0 7 7 15 16 19 15 6 15 8 -2 21 -18 14 -18 14 3 9
23 -5 48 14 35 28 -4 4 0 6 8 3 8 -3 14 -14 12 -24 -2 -18 -2 -18 8 -1 6 9 16
14 22 11 7 -5 8 -2 4 5 -5 8 -2 11 9 9 23 -4 41 40 20 48 -8 4 -12 10 -9 15 9
15 -2 10 -16 -6z m5 -14 c-3 -5 -1 -12 5 -16 5 -3 10 -12 10 -18 0 -7 -7 -3
-15 7 -13 17 -12 36 1 36 3 0 3 -4 -1 -9z m-28 -36 c0 -8 -4 -12 -9 -9 -5 3
-6 10 -3 15 9 13 12 11 12 -6z m-37 -19 c0 -3 -4 -8 -10 -11 -5 -3 -10 -1 -10
4 0 6 5 11 10 11 6 0 10 -2 10 -4z"/>
<path d="M1599 4214 c-9 -11 -22 -14 -43 -10 -22 4 -27 3 -16 -4 8 -5 34 -12
57 -16 26 -4 40 -10 36 -17 -3 -5 -1 -7 4 -4 6 4 16 0 23 -8 7 -8 17 -15 23
-15 6 0 18 -7 27 -15 14 -13 16 -12 17 7 1 11 -4 27 -12 34 -18 18 -26 18 -19
0 3 -9 0 -14 -8 -12 -24 3 -39 18 -34 32 3 8 0 11 -10 7 -8 -3 -14 1 -14 10 0
23 -16 29 -31 11z m21 -10 c0 -8 -5 -12 -10 -9 -6 4 -8 11 -5 16 9 14 15 11
15 -7z"/>
<path d="M1404 4175 c7 -35 -2 -68 -15 -60 -5 4 -9 11 -9 16 0 6 5 7 10 4 6
-3 10 -2 10 4 0 24 -17 17 -32 -12 -24 -49 -29 -67 -15 -64 15 3 21 -41 8 -57
-6 -8 -8 -22 -4 -31 5 -14 3 -16 -7 -10 -8 5 -11 4 -7 -2 3 -5 8 -20 11 -34 2
-13 7 -33 11 -44 7 -20 6 -20 -9 -1 -9 11 -16 14 -16 8 0 -7 -10 -12 -22 -13
-13 0 -18 -3 -11 -5 7 -3 9 -12 6 -20 -3 -8 0 -21 6 -28 9 -10 9 -16 1 -21 -6
-4 -10 -3 -9 2 3 13 -12 43 -22 43 -5 0 -1 -15 8 -34 14 -29 18 -32 30 -21 7
8 13 17 13 21 -1 4 4 11 12 15 9 6 7 9 -9 9 -23 0 -29 10 -16 23 3 4 12 2 19
-4 9 -7 17 -2 31 18 11 15 19 35 18 43 0 8 6 21 15 28 13 12 13 13 -2 8 -9 -3
-19 0 -22 7 -3 7 -3 0 -1 -15 2 -16 -1 -28 -6 -28 -6 0 -7 -5 -3 -12 4 -6 3
-8 -3 -5 -12 8 -3 63 16 93 12 18 12 18 8 -3 -3 -13 -2 -23 3 -23 12 0 20 29
10 35 -6 4 -8 18 -5 33 5 27 5 27 -7 4 -11 -23 -12 -22 -25 20 -8 30 -9 46 -2
53 7 7 10 4 7 -10 -2 -14 2 -19 15 -17 9 2 17 -2 17 -9 0 -8 4 -9 13 0 19 15
11 91 -12 114 -10 10 -11 6 -7 -18z m17 -58 c-10 -9 -11 -8 -5 6 3 10 9 15 12
12 3 -3 0 -11 -7 -18z m-48 -122 c-3 -9 -8 -14 -10 -11 -3 3 -2 9 2 15 9 16
15 13 8 -4z"/>
<path d="M1810 4136 c0 -9 -7 -16 -15 -16 -8 0 -15 -5 -15 -11 0 -5 -5 -7 -10
-4 -8 5 -7 12 2 22 12 15 11 15 -10 2 -21 -13 -26 -32 -8 -29 4 1 16 -8 25
-19 10 -11 20 -18 24 -15 3 3 20 -13 38 -36 31 -38 34 -40 47 -23 12 16 13 15
10 -12 -2 -22 2 -32 18 -40 11 -5 19 -17 17 -25 -4 -13 -3 -13 5 -1 8 11 11 9
14 -10 1 -13 10 -24 18 -24 8 0 15 -9 15 -20 1 -12 7 -19 15 -17 10 2 11 0 2
-11 -16 -19 14 -46 45 -41 12 2 25 -1 29 -8 4 -6 3 -8 -4 -4 -6 3 -13 2 -17
-4 -4 -6 -12 -7 -18 -4 -8 5 -8 3 1 -7 15 -16 16 -63 1 -53 -8 4 -9 -1 -4 -16
5 -17 4 -21 -5 -15 -9 5 -11 4 -6 -4 4 -6 12 -8 18 -5 7 4 8 2 4 -4 -4 -6 -14
-8 -24 -5 -14 5 -15 3 -4 -8 13 -14 17 -33 4 -25 -4 2 -14 0 -22 -6 -12 -8
-12 -9 3 -4 9 3 17 1 17 -4 0 -9 -14 -14 -31 -12 -4 1 -11 -17 -17 -38 -8 -34
-8 -40 7 -41 11 0 10 -3 -6 -9 -12 -5 -27 -19 -33 -32 -11 -22 -10 -22 11 2
l22 25 -8 -24 c-5 -18 -4 -22 5 -16 9 5 11 4 6 -3 -4 -7 -2 -20 4 -29 9 -14
10 -9 7 25 -3 24 -1 40 4 36 5 -3 10 0 10 5 2 13 5 28 9 39 5 12 8 26 9 45 0
10 5 15 11 12 6 -3 7 1 4 9 -3 9 -1 16 6 16 6 0 8 5 5 10 -3 6 -1 10 5 10 6 0
9 4 5 9 -3 5 -1 12 5 16 5 3 10 12 10 18 0 8 -3 7 -9 -2 -5 -8 -8 3 -7 33 1
47 16 66 16 21 0 -24 10 -32 23 -18 4 3 1 13 -6 21 -6 9 -7 13 -2 10 7 -4 9 8
7 33 -4 38 -14 49 -27 29 -3 -5 -12 -7 -20 -4 -8 4 -12 11 -8 17 3 6 1 7 -5 3
-7 -4 -12 -1 -12 8 0 9 -5 16 -11 16 -5 0 -8 4 -4 9 3 5 1 12 -5 16 -6 4 -8
11 -5 16 4 5 1 9 -5 9 -6 0 -8 5 -4 12 4 7 3 8 -5 4 -6 -4 -9 -11 -6 -16 3 -5
2 -11 -3 -14 -13 -8 -11 27 2 44 10 13 9 13 -8 0 -18 -14 -19 -13 -14 1 5 13
2 16 -13 12 -10 -3 -19 -1 -20 3 0 5 -2 17 -4 27 -2 9 1 15 6 11 5 -3 7 -9 4
-14 -3 -5 -1 -11 4 -14 5 -4 8 2 6 11 -2 10 -4 29 -5 43 -1 22 -2 23 -9 5 -7
-17 -8 -17 -15 8 -3 15 -11 27 -16 27 -6 0 -10 5 -10 11 0 5 4 8 9 5 5 -4 7 3
4 14 -3 11 -10 17 -16 13 -6 -4 -8 0 -4 10 8 22 -2 22 -19 0 -16 -21 -18 -37
-4 -28 6 3 7 -1 4 -9 -8 -20 -9 -20 -28 -1 -18 18 -11 46 10 38 8 -3 14 1 14
8 0 7 -3 9 -7 6 -3 -4 -12 -2 -20 4 -10 9 -13 8 -13 -5z m-6 -47 c-3 -5 -10
-7 -15 -3 -5 3 -7 10 -3 15 3 5 10 7 15 3 5 -3 7 -10 3 -15z m30 -25 c15 -14
17 -14 22 1 6 14 8 14 20 -2 7 -10 14 -22 14 -27 0 -6 -7 -1 -15 10 -11 15
-14 16 -15 4 0 -9 5 -21 12 -28 6 -6 10 -14 7 -16 -2 -3 -19 13 -37 35 -33 39
-38 53 -8 23z m191 -235 c11 -16 1 -19 -13 -3 -7 8 -8 14 -3 14 5 0 13 -5 16
-11z m-22 -236 c-7 -3 -13 -12 -13 -21 0 -15 2 -15 10 -2 6 9 10 10 10 3 0
-19 -20 -26 -26 -9 -7 17 15 51 25 40 3 -4 0 -9 -6 -11z"/>
<path d="M1057 4094 c-3 -4 -2 -15 3 -24 7 -13 6 -20 -6 -24 -9 -3 -14 -1 -12
7 2 7 -1 14 -7 15 -5 1 -10 -1 -10 -6 0 -11 -42 -62 -47 -57 -2 3 -4 -9 -3
-25 2 -37 10 -46 28 -32 8 7 16 10 18 7 3 -2 5 5 6 16 2 20 27 52 35 44 3 -3
5 1 6 8 0 6 4 27 7 45 6 29 -2 41 -18 26z m-16 -76 c-23 -21 -45 -24 -38 -5 2
6 10 11 16 10 6 -2 11 1 11 5 0 5 7 9 15 9 12 0 11 -4 -4 -19z m-21 -36 c0 -6
-28 -32 -36 -32 -3 0 -1 6 5 14 9 11 9 15 -1 19 -7 3 -3 4 10 4 12 -1 22 -3
22 -5z"/>
<path d="M1314 4035 c-9 -18 -8 -22 3 -21 7 1 13 6 12 11 0 4 5 11 11 15 9 5
8 9 -2 12 -8 3 -18 -4 -24 -17z"/>
<path d="M950 3971 c0 -6 0 -13 0 -16 0 -3 -11 -22 -24 -42 -24 -34 -24 -37
-8 -50 12 -11 14 -16 5 -19 -7 -3 -13 -10 -13 -15 0 -6 5 -7 10 -4 6 3 10 1
10 -4 0 -6 -5 -11 -12 -11 -6 0 -9 -3 -5 -6 3 -3 16 1 29 10 21 15 21 16 3 17
-18 0 -18 1 2 9 12 5 29 22 37 38 14 27 13 30 -9 55 -15 16 -20 27 -13 29 9 3
9 6 0 12 -7 4 -12 2 -12 -3z m31 -58 c13 -16 12 -17 -4 -4 -15 12 -19 12 -32
-5 -19 -25 -18 -31 3 -43 9 -6 12 -11 6 -11 -6 0 -17 7 -24 15 -10 12 -9 20 4
40 19 30 29 31 47 8z m-10 -36 c-13 -13 -26 -3 -16 12 3 6 11 8 17 5 6 -4 6
-10 -1 -17z"/>
<path d="M1270 3968 c-1 -17 -46 -68 -60 -68 -6 0 -9 -4 -6 -9 3 -5 -1 -14 -9
-21 -8 -7 -15 -18 -15 -24 0 -6 5 -3 11 7 6 9 15 14 21 11 6 -4 8 -2 4 4 -3 6
4 18 16 27 13 8 21 18 20 21 -2 3 8 19 22 35 19 21 22 29 11 29 -8 0 -15 -6
-15 -12z"/>
<path d="M1321 3916 c-9 -11 -9 -16 1 -22 7 -4 10 -4 6 1 -4 4 -3 14 3 22 6 7
9 13 6 13 -2 0 -10 -6 -16 -14z"/>
<path d="M889 3833 c-6 -16 -15 -36 -20 -46 -5 -9 -6 -17 -2 -16 20 3 24 -2
13 -16 -7 -8 -17 -12 -23 -8 -6 3 -7 1 -3 -5 4 -7 1 -12 -6 -12 -7 -1 2 -7 20
-15 34 -15 38 -22 21 -45 -9 -12 -10 -11 -6 6 3 13 -1 21 -9 21 -8 0 -12 -2
-9 -5 2 -2 -2 -11 -10 -19 -8 -8 -14 -26 -14 -41 1 -27 1 -27 9 3 8 30 8 30 9
-8 1 -34 2 -36 21 -25 13 8 16 16 10 22 -14 14 -12 28 3 20 6 -4 9 -4 5 1 -4
4 -3 16 3 27 13 24 2 61 -17 54 -8 -3 -14 -1 -14 3 0 17 28 20 34 4 4 -9 9
-13 12 -10 3 3 -2 17 -11 31 -19 28 -10 36 10 9 9 -13 14 -13 20 -3 5 9 4 11
-3 6 -18 -11 -14 4 6 22 10 10 12 13 5 9 -6 -5 -21 -6 -32 -2 -16 5 -18 11
-11 35 11 38 3 39 -11 3z"/>
<path d="M1159 3848 c-1 -2 -2 -15 -3 -30 -2 -21 1 -25 11 -16 16 13 17 32 1
22 -8 -5 -9 -2 -5 9 5 13 1 25 -4 15z"/>
<path d="M1270 3817 c0 -9 5 -17 11 -17 5 0 7 -5 4 -11 -5 -6 -12 -4 -22 8 -8
10 -12 13 -9 6 4 -6 0 -14 -6 -16 -10 -4 -10 -6 0 -6 18 -1 15 -26 -7 -45 -15
-14 -19 -14 -24 -3 -3 9 1 14 10 13 9 0 18 4 20 11 9 26 -40 -2 -52 -30 -7
-16 -14 -24 -17 -17 -3 9 -8 7 -18 -6 -12 -14 -12 -16 -1 -9 10 5 12 4 7 -3
-4 -7 -15 -12 -24 -12 -16 -1 -16 -2 1 -14 24 -18 21 -29 -5 -20 -13 3 -20 3
-16 -1 4 -4 3 -18 -2 -31 -14 -37 4 -36 40 1 28 29 31 35 16 41 -13 5 -14 9
-5 20 12 14 33 9 24 -6 -3 -4 3 -7 12 -6 11 2 18 11 17 25 -1 14 4 20 15 19 8
-2 16 4 16 12 0 8 8 14 18 14 9 -1 15 2 12 6 -3 5 -1 11 5 15 12 7 5 54 -10
69 -7 7 -10 5 -10 -7z m-53 -132 c0 -8 -4 -12 -9 -9 -4 3 -8 9 -8 15 0 5 4 9
8 9 5 0 9 -7 9 -15z m-81 -83 c-17 -16 -18 -16 -5 5 7 12 15 20 18 17 3 -2 -3
-12 -13 -22z"/>
<path d="M1131 3791 c-1 -8 -7 -11 -17 -7 -8 3 -12 2 -9 -4 3 -6 1 -10 -6 -10
-8 0 -8 -4 2 -16 11 -13 11 -15 -2 -12 -9 1 -30 -12 -48 -29 -24 -24 -28 -33
-16 -33 9 0 14 -4 10 -10 -3 -5 -12 -7 -19 -4 -8 3 -23 -6 -33 -20 -11 -14
-24 -22 -28 -18 -5 4 -5 2 -1 -5 3 -7 -2 -14 -14 -18 -11 -4 -18 -11 -15 -16
4 -5 2 -9 -4 -9 -5 0 -12 6 -14 13 -4 9 -6 8 -6 -2 -1 -10 -4 -11 -15 -2 -10
9 -16 9 -21 1 -5 -8 -11 -8 -21 1 -27 22 -27 0 0 -36 15 -20 36 -35 49 -36 17
-1 18 -2 5 -6 -10 -2 -18 -9 -18 -14 0 -6 -5 -7 -10 -4 -6 4 -8 10 -5 15 9 15
-9 19 -22 5 -15 -16 3 -26 55 -30 26 -3 32 0 28 11 -4 9 2 14 17 14 12 0 18
-4 12 -8 -10 -7 -19 -32 -11 -32 2 0 11 12 21 26 9 15 13 24 8 21 -5 -3 -14 3
-21 14 -14 21 -3 25 18 7 12 -11 12 -10 1 5 -17 21 -25 21 -45 1 -10 -10 -16
-11 -16 -3 0 8 -5 8 -17 -2 -16 -12 -17 -12 -6 2 7 9 10 18 7 21 -3 3 0 9 7
14 8 5 10 3 4 -5 -6 -10 -2 -10 16 0 13 7 28 12 32 11 5 -1 6 2 2 7 -3 6 4 15
15 21 11 6 17 16 14 22 -5 7 -2 9 9 5 12 -4 14 -2 10 10 -5 11 -3 14 6 9 13
-9 64 32 56 44 -3 4 7 15 20 24 14 9 23 21 20 26 -3 5 2 13 11 18 9 5 14 15
11 23 -4 11 -6 12 -6 0z m-61 -95 c0 -3 -4 -8 -10 -11 -5 -3 -10 -1 -10 4 0 6
5 11 10 11 6 0 10 -2 10 -4z"/>
<path d="M2020 3750 c0 -5 5 -10 10 -10 6 0 10 5 10 10 0 6 -4 10 -10 10 -5 0
-10 -4 -10 -10z"/>
<path d="M1095 3640 c-3 -5 -3 -14 0 -20 4 -6 -1 -7 -12 -3 -15 6 -16 4 -6 -8
10 -12 7 -15 -15 -14 -39 0 -35 -28 4 -29 17 -1 31 4 32 9 6 33 10 75 7 75 -2
0 -7 -4 -10 -10z"/>
<path d="M1003 3568 c-5 -7 -7 -26 -3 -43 5 -27 6 -28 14 -10 16 35 15 44 -2
37 -15 -5 -15 -4 -3 11 7 9 11 17 8 17 -2 0 -9 -6 -14 -12z"/>
<path d="M827 3550 c7 -25 23 -37 23 -17 0 8 -6 20 -14 26 -12 10 -13 8 -9 -9z"/>
<path d="M1950 3463 c0 -13 -4 -23 -10 -23 -6 0 -6 -9 0 -26 14 -36 12 -42 -6
-19 -16 20 -16 20 -9 -2 4 -14 2 -23 -4 -23 -6 0 -11 -8 -11 -18 0 -10 -5 -23
-12 -30 -9 -9 -9 -12 -1 -12 7 0 15 5 18 10 5 8 12 7 23 -2 13 -11 15 -10 9 5
-3 9 -2 17 2 17 5 0 11 7 14 14 4 11 1 13 -11 9 -9 -4 -20 -11 -24 -17 -5 -7
-8 -7 -8 2 0 7 11 18 25 24 25 11 34 28 15 28 -5 0 -10 8 -10 18 0 14 2 15 10
2 8 -13 11 -13 22 -1 10 10 10 12 1 7 -8 -5 -13 -1 -13 11 0 10 -5 25 -10 33
-8 12 -10 11 -10 -7z"/>
<path d="M1924 3296 c5 -15 4 -17 -7 -7 -11 9 -17 7 -28 -6 -13 -16 -12 -17 2
-5 14 10 18 10 23 -3 3 -9 2 -13 -4 -10 -12 7 -29 -26 -22 -44 3 -9 0 -11 -9
-6 -8 5 -11 5 -7 1 4 -5 3 -19 -2 -31 -6 -16 -5 -25 3 -29 8 -3 9 -7 2 -13 -8
-7 -16 -30 -17 -53 -1 -27 4 -50 11 -50 5 0 7 10 5 23 -2 12 -1 15 2 7 4 -8
12 -18 18 -22 8 -5 7 -8 -1 -8 -17 0 -17 -17 0 -23 14 -5 15 9 2 55 -4 16 -11
26 -15 23 -4 -2 -5 7 -2 20 2 14 9 22 14 19 5 -3 7 -11 5 -18 -3 -6 1 -20 9
-30 12 -17 13 -16 11 10 -1 16 -5 31 -9 34 -3 3 2 24 13 48 22 48 19 63 -13
54 -14 -3 -19 -2 -14 7 4 6 11 9 16 6 5 -3 11 -1 15 5 4 6 10 8 14 6 13 -8 5
34 -9 47 -10 10 -12 8 -6 -7z m-9 -96 c3 -5 1 -10 -4 -10 -6 0 -11 5 -11 10 0
6 2 10 4 10 3 0 8 -4 11 -10z m-16 -50 c0 -10 -3 -8 -9 5 -12 27 -12 43 0 25
5 -8 9 -22 9 -30z"/>
<path d="M1850 3015 c0 -8 4 -15 10 -15 5 0 7 -7 4 -15 -5 -11 -2 -13 10 -9
22 8 20 27 -4 42 -17 10 -20 10 -20 -3z"/>
<path d="M1829 2993 c-5 -64 -5 -86 -2 -75 5 13 43 17 43 4 0 -4 -5 -13 -12
-20 -9 -9 -9 -12 3 -12 12 0 12 -2 -1 -10 -11 -7 -17 -5 -21 8 -3 9 -6 -11 -5
-44 0 -38 -4 -67 -13 -78 -19 -23 -11 -253 9 -266 21 -13 22 -8 10 46 -14 61
-17 171 -4 184 5 5 8 -19 7 -63 -2 -40 1 -85 6 -102 6 -21 7 -4 5 54 -3 46 0
99 6 117 8 25 8 38 0 51 -9 15 -10 13 -5 -10 4 -19 2 -26 -5 -22 -16 10 -12
55 5 55 10 0 15 11 16 33 1 33 2 42 14 96 4 20 3 31 -5 31 -6 0 -8 -5 -4 -12
5 -9 2 -9 -9 1 -15 12 -17 11 -18 -5 0 -18 -1 -18 -8 1 -5 11 -4 22 0 23 5 2
9 8 9 13 0 11 -20 12 -21 2z m28 -165 c-3 -8 -6 -5 -6 6 -1 11 2 17 5 13 3 -3
4 -12 1 -19z"/>
<path d="M1811 2809 c-5 -13 -6 -28 -3 -34 3 -5 9 4 14 20 9 36 2 46 -11 14z"/>
<path d="M1860 2496 c0 -8 -7 -17 -16 -20 -10 -4 -14 -14 -11 -26 3 -11 1 -18
-4 -15 -5 3 -8 -21 -7 -55 1 -33 6 -60 10 -60 4 0 8 8 9 18 0 14 2 14 8 -3 6
-15 3 -22 -13 -29 -12 -5 -16 -10 -9 -13 7 -2 9 -11 6 -19 -3 -8 0 -14 7 -14
6 0 8 -5 4 -12 -5 -9 -2 -8 9 1 16 12 17 12 10 -5 -6 -17 -5 -17 10 -5 19 15
23 61 6 61 -6 0 -9 6 -6 14 3 8 3 17 0 20 -3 3 -5 44 -5 91 0 47 -2 85 -4 85
-2 0 -4 -6 -4 -14z m0 -54 c0 -15 -2 -15 -10 -2 -13 20 -13 33 0 25 6 -3 10
-14 10 -23z m0 -46 c0 -8 -6 -18 -13 -24 -10 -9 -13 -5 -11 16 2 34 2 34 14
27 6 -3 10 -12 10 -19z m20 -118 c0 -13 -23 -5 -28 10 -2 7 2 10 12 6 9 -3 16
-11 16 -16z"/>
<path d="M1808 2465 c-3 -13 -2 -22 2 -20 11 7 20 45 10 45 -4 0 -10 -11 -12
-25z"/>
<path d="M1886 2229 c5 -9 -1 -10 -19 -5 -25 6 -26 5 -17 -18 5 -13 7 -34 4
-47 -4 -22 -4 -22 5 -4 9 18 10 18 10 -7 1 -14 7 -29 14 -32 8 -3 6 -10 -8
-21 -20 -17 -20 -17 0 -11 19 5 20 2 17 -35 -3 -30 -7 -38 -14 -28 -8 11 -9
11 -5 -1 2 -8 11 -15 20 -15 9 0 26 -8 37 -18 25 -21 37 -22 20 -2 -7 9 -14
32 -16 53 -1 20 -7 38 -13 40 -6 2 -11 8 -11 13 0 6 6 7 13 3 6 -4 4 2 -5 13
-10 11 -18 30 -19 44 0 22 -1 23 -9 4 -8 -18 -9 -17 -9 8 -1 15 -5 27 -11 27
-5 0 -10 5 -10 11 0 5 4 8 9 5 15 -10 40 5 34 20 -3 8 -9 14 -15 14 -5 0 -6
-5 -2 -11z m35 -184 c5 4 9 2 9 -4 0 -5 -4 -12 -9 -15 -9 -6 -22 17 -20 37 1
7 3 4 6 -6 2 -9 9 -15 14 -12z"/>
<path d="M1904 1988 c3 -10 1 -18 -4 -18 -6 0 -10 5 -10 10 0 6 -5 10 -11 10
-6 0 1 -14 15 -31 26 -31 36 -66 14 -53 -7 4 -8 3 -4 -5 4 -6 11 -9 15 -7 4 3
13 -4 20 -16 11 -18 10 -19 -11 -14 -13 3 -17 3 -10 0 6 -3 10 -9 7 -14 -3 -4
2 -13 10 -20 18 -15 20 -34 3 -24 -7 4 -8 3 -4 -5 6 -9 11 -9 21 -1 9 8 15 8
20 0 8 -13 35 -13 35 1 0 5 -5 7 -12 3 -8 -5 -9 -2 -4 11 5 14 4 16 -7 7 -10
-9 -18 -8 -33 4 -18 14 -18 15 6 9 17 -4 21 -3 11 3 -11 8 -10 12 5 22 18 11
18 11 1 6 -14 -5 -17 -2 -12 13 3 11 1 22 -4 26 -7 4 -8 -1 -4 -12 6 -16 5
-16 -10 -4 -21 16 -23 43 -3 35 8 -3 17 -1 20 4 4 6 -4 9 -19 8 -13 -2 -22 1
-19 5 3 5 0 9 -5 9 -6 0 -11 5 -11 12 0 9 3 9 12 0 7 -7 19 -12 27 -12 10 0 7
6 -9 17 -14 9 -29 22 -33 27 -5 7 -7 4 -3 -6z"/>
<path d="M1965 1766 c5 -32 15 -48 15 -23 0 19 15 23 25 7 3 -5 1 -10 -4 -10
-17 0 -13 -29 7 -51 13 -13 26 -17 38 -13 15 5 14 3 -4 -10 l-22 -17 26 -35
c15 -19 22 -34 18 -34 -11 0 18 -20 29 -20 16 0 5 32 -13 37 -11 3 -20 13 -20
22 0 14 2 14 10 1 7 -12 9 -10 7 8 0 12 -5 22 -10 22 -5 0 -7 6 -4 14 3 8 -1
20 -8 26 -8 7 -12 17 -9 22 4 6 -2 5 -14 -1 -15 -8 -21 -7 -25 4 -4 10 -1 12
11 9 13 -5 14 -4 3 4 -9 6 -10 12 -3 16 6 4 8 14 5 22 -5 13 -7 13 -14 2 -7
-11 -9 -11 -9 1 0 7 -6 11 -14 8 -8 -3 -17 -1 -20 6 -3 7 -3 -1 -1 -17z m75
-76 c0 -5 -4 -10 -10 -10 -5 0 -10 5 -10 10 0 6 5 10 10 10 6 0 10 -4 10 -10z
m20 -50 c0 -5 -4 -10 -10 -10 -5 0 -10 5 -10 10 0 6 5 10 10 10 6 0 10 -4 10
-10z"/>
</g>
</svg>
